# xmcd
#
# Track frame offsets: 
#        150
#        15695
#        30240
#        49267
#        65445
#        80120
#        91627
#        105937
#        119795
#        141460
#        151640
#        165567
#        188600
#        206357
#
# Disc length: 2988 seconds
#
# Revision: 0
# Processed by: cddbd v1.5.2PL0 Copyright (c) Steve Scherf et al.
# Submitted via: ExactAudioCopy v0.95b4
#
DISCID=ab0baa0e
DTITLE=Madeline - Rain Baby
DYEAR=1999
DGENRE=Blues
TTITLE0=Hold Me Down
TTITLE1=Under a Weeping Willow
TTITLE2=One Chance
TTITLE3=Give It All To You
TTITLE4=When You're Lookin For Love (Duet With Erin Gullaksen)
TTITLE5=Forever Friends
TTITLE6=Take You With Me
TTITLE7=Sylvia
TTITLE8=Helpless
TTITLE9=Let's Take a Long Ride Home
TTITLE10=Touch and Feel
TTITLE11=A Dream Inside a Dream
TTITLE12=Life's Too Short for This
TTITLE13=Rain, Baby
EXTD=
EXTT0=
EXTT1=
EXTT2=
EXTT3=
EXTT4=
EXTT5=
EXTT6=
EXTT7=
EXTT8=
EXTT9=
EXTT10=
EXTT11=
EXTT12=
EXTT13=
PLAYORDER=
